<?xml version="1.0" standalone="no"?>
<!DOCTYPE svg PUBLIC "-//W3C//DTD SVG 1.1//EN" "http://www.w3.org/Graphics/SVG/1.1/DTD/svg11.dtd">
<svg xmlns="http://www.w3.org/2000/svg" xmlns:xlink="http://www.w3.org/1999/xlink" width="1000" height="400" viewBox="0 0 1000 400" version="1.1">
<g id="surface1">
<path style=" stroke:none;fill-rule:nonzero;fill:rgb(13.725491%,12.156863%,12.54902%);fill-opacity:1;" d="M 456.519531 276.761719 L 456.519531 282.121094 C 456.566406 284.195312 456.113281 286.253906 455.199219 288.121094 C 454.289062 289.820312 452.898438 291.210938 451.199219 292.121094 C 449.488281 293.074219 447.558594 293.554688 445.601562 293.519531 C 443.613281 293.558594 441.648438 293.105469 439.878906 292.199219 C 438.167969 291.308594 436.769531 289.914062 435.878906 288.199219 C 434.957031 286.464844 434.488281 284.523438 434.519531 282.558594 L 434.519531 273.761719 C 434.46875 271.679688 434.933594 269.617188 435.878906 267.761719 C 436.710938 266.082031 438.019531 264.691406 439.640625 263.761719 C 441.351562 262.808594 443.28125 262.324219 445.238281 262.359375 C 446.933594 262.335938 448.605469 262.722656 450.121094 263.480469 C 451.601562 264.226562 452.878906 265.328125 453.839844 266.679688 C 454.867188 268.089844 455.550781 269.71875 455.839844 271.441406 L 451.601562 271.441406 C 451.371094 270.476562 450.933594 269.574219 450.320312 268.800781 C 449.738281 268.097656 449.015625 267.527344 448.199219 267.121094 C 447.402344 266.742188 446.523438 266.550781 445.640625 266.558594 C 444.472656 266.53125 443.320312 266.835938 442.320312 267.441406 C 441.347656 268.054688 440.582031 268.945312 440.121094 270 C 439.539062 271.25 439.265625 272.621094 439.320312 274 L 439.320312 282.800781 C 439.296875 283.996094 439.570312 285.179688 440.121094 286.238281 C 440.652344 287.207031 441.441406 288.007812 442.398438 288.558594 C 443.441406 289.125 444.617188 289.398438 445.800781 289.359375 C 446.960938 289.378906 448.109375 289.089844 449.121094 288.519531 C 450.089844 287.9375 450.855469 287.070312 451.320312 286.039062 C 451.898438 284.789062 452.171875 283.417969 452.121094 282.039062 L 452.121094 280.71875 L 445.878906 280.71875 L 445.878906 276.71875 Z M 456.519531 276.761719 "/>
<path style=" stroke:none;fill-rule:nonzero;fill:rgb(13.725491%,12.156863%,12.54902%);fill-opacity:1;" d="M 463.039062 262.601562 L 467.320312 262.601562 L 467.320312 293.238281 L 463.039062 293.238281 Z M 464.921875 276.199219 L 475.359375 276.199219 C 476.117188 276.210938 476.863281 276.015625 477.519531 275.640625 C 478.164062 275.230469 478.675781 274.648438 479 273.960938 C 479.367188 273.171875 479.546875 272.308594 479.519531 271.441406 C 479.542969 270.585938 479.363281 269.734375 479 268.960938 C 478.675781 268.28125 478.179688 267.703125 477.558594 267.28125 C 476.902344 266.871094 476.136719 266.664062 475.359375 266.679688 L 464.921875 266.679688 L 464.921875 262.679688 L 475.199219 262.679688 C 476.824219 262.648438 478.433594 263.019531 479.878906 263.761719 C 481.175781 264.492188 482.242188 265.574219 482.960938 266.878906 C 483.730469 268.300781 484.117188 269.902344 484.078125 271.519531 C 484.125 273.136719 483.738281 274.738281 482.960938 276.160156 C 482.265625 277.496094 481.175781 278.585938 479.839844 279.28125 C 478.40625 280.019531 476.8125 280.390625 475.199219 280.359375 L 464.921875 280.359375 Z M 473.238281 279.359375 L 477.519531 278.398438 L 485.519531 293.238281 L 480.441406 293.238281 Z M 473.238281 279.359375 "/>
<path style=" stroke:none;fill-rule:nonzero;fill:rgb(13.725491%,12.156863%,12.54902%);fill-opacity:1;" d="M 495.480469 293.238281 L 491.160156 293.238281 L 491.160156 262.640625 L 495.480469 262.640625 Z M 495.480469 293.238281 "/>
<path style=" stroke:none;fill-rule:nonzero;fill:rgb(13.725491%,12.156863%,12.54902%);fill-opacity:1;" d="M 503.039062 262.640625 L 507.359375 262.640625 L 507.359375 293.238281 L 503.039062 293.238281 Z M 505.238281 277.28125 L 515.039062 277.28125 C 515.898438 277.3125 516.746094 277.089844 517.480469 276.640625 C 518.214844 276.203125 518.789062 275.546875 519.121094 274.761719 C 519.535156 273.914062 519.738281 272.980469 519.71875 272.039062 C 519.742188 271.074219 519.539062 270.113281 519.121094 269.238281 C 518.789062 268.453125 518.214844 267.796875 517.480469 267.359375 C 516.746094 266.910156 515.898438 266.6875 515.039062 266.71875 L 505.238281 266.71875 L 505.238281 262.71875 L 514.921875 262.71875 C 516.59375 262.671875 518.253906 263.074219 519.71875 263.878906 C 521.097656 264.632812 522.226562 265.773438 522.960938 267.160156 C 523.691406 268.667969 524.046875 270.328125 524 272 C 524.027344 273.699219 523.628906 275.375 522.839844 276.878906 C 522.117188 278.277344 520.988281 279.421875 519.601562 280.160156 C 518.132812 280.96875 516.476562 281.367188 514.800781 281.320312 L 505.121094 281.320312 Z M 505.238281 277.28125 "/>
<path style=" stroke:none;fill-rule:nonzero;fill:rgb(13.725491%,12.156863%,12.54902%);fill-opacity:1;" d="M 546 292 C 544.359375 291.082031 543.035156 289.6875 542.199219 288 C 541.289062 286.164062 540.835938 284.132812 540.878906 282.078125 L 540.878906 273.601562 C 540.835938 271.550781 541.289062 269.515625 542.199219 267.679688 C 543.035156 265.992188 544.359375 264.597656 546 263.679688 C 547.714844 262.703125 549.667969 262.21875 551.640625 262.28125 C 553.613281 262.230469 555.5625 262.710938 557.28125 263.679688 C 558.910156 264.601562 560.222656 265.996094 561.039062 267.679688 C 561.984375 269.507812 562.453125 271.542969 562.398438 273.601562 L 562.398438 282.28125 C 562.453125 284.335938 561.984375 286.371094 561.039062 288.199219 C 560.222656 289.882812 558.910156 291.277344 557.28125 292.199219 C 555.5625 293.167969 553.613281 293.652344 551.640625 293.601562 C 549.648438 293.601562 547.695312 293.046875 546 292 Z M 554.960938 288.320312 C 555.929688 287.761719 556.707031 286.925781 557.199219 285.921875 C 557.742188 284.785156 558.015625 283.539062 558 282.28125 L 558 273.441406 C 558.015625 272.179688 557.742188 270.9375 557.199219 269.800781 C 556.707031 268.796875 555.929688 267.960938 554.960938 267.398438 C 552.875 266.285156 550.367188 266.285156 548.28125 267.398438 C 547.320312 267.972656 546.546875 268.804688 546.039062 269.800781 C 545.511719 270.941406 545.253906 272.183594 545.28125 273.441406 L 545.28125 282.441406 C 545.253906 283.695312 545.511719 284.941406 546.039062 286.078125 C 546.546875 287.074219 547.320312 287.90625 548.28125 288.480469 C 550.367188 289.597656 552.875 289.597656 554.960938 288.480469 Z M 554.960938 288.320312 "/>
<path style=" stroke:none;fill-rule:nonzero;fill:rgb(13.725491%,12.156863%,12.54902%);fill-opacity:1;" d="M 568.921875 262.640625 L 573.238281 262.640625 L 573.238281 293.238281 L 568.921875 293.238281 Z M 571.121094 277.28125 L 580.921875 277.28125 C 581.777344 277.3125 582.628906 277.089844 583.359375 276.640625 C 584.09375 276.203125 584.667969 275.546875 585 274.761719 C 585.414062 273.914062 585.621094 272.980469 585.601562 272.039062 C 585.621094 271.074219 585.417969 270.113281 585 269.238281 C 584.667969 268.453125 584.09375 267.796875 583.359375 267.359375 C 582.628906 266.910156 581.777344 266.6875 580.921875 266.71875 L 571.121094 266.71875 L 571.121094 262.71875 L 580.800781 262.71875 C 582.476562 262.671875 584.132812 263.074219 585.601562 263.878906 C 586.976562 264.632812 588.105469 265.773438 588.839844 267.160156 C 589.609375 268.65625 590.007812 270.316406 590 272 C 590.027344 273.699219 589.628906 275.375 588.839844 276.878906 C 588.117188 278.277344 586.988281 279.421875 585.601562 280.160156 C 584.132812 280.96875 582.476562 281.367188 580.800781 281.320312 L 571.121094 281.320312 Z M 571.121094 277.28125 "/>
<path style=" stroke:none;fill-rule:nonzero;fill:rgb(13.725491%,12.156863%,12.54902%);fill-opacity:1;" d="M 607.359375 262.640625 L 611.679688 262.640625 L 611.679688 293.238281 L 607.359375 293.238281 Z M 609.601562 277.28125 L 619.398438 277.28125 C 620.257812 277.300781 621.105469 277.082031 621.839844 276.640625 C 622.554688 276.179688 623.121094 275.53125 623.480469 274.761719 C 623.851562 273.890625 624.03125 272.945312 624 272 C 624.015625 271.039062 623.824219 270.082031 623.441406 269.199219 C 623.070312 268.4375 622.503906 267.789062 621.800781 267.320312 C 621.0625 266.878906 620.21875 266.65625 619.359375 266.679688 L 609.601562 266.679688 L 609.601562 262.679688 L 619.238281 262.679688 C 620.914062 262.695312 622.558594 263.148438 624 264 C 625.363281 264.757812 626.476562 265.898438 627.199219 267.28125 C 628.007812 268.804688 628.40625 270.515625 628.359375 272.238281 C 628.410156 273.941406 628.007812 275.625 627.199219 277.121094 C 626.476562 278.503906 625.363281 279.640625 624 280.398438 C 622.519531 281.210938 620.847656 281.609375 619.160156 281.558594 L 609.601562 281.558594 Z M 609.601562 277.28125 "/>
<path style=" stroke:none;fill-rule:nonzero;fill:rgb(13.725491%,12.156863%,12.54902%);fill-opacity:1;" d="M 633.800781 262.601562 L 638.121094 262.601562 L 638.121094 293.238281 L 633.800781 293.238281 Z M 635.679688 276.199219 L 646.160156 276.199219 C 646.917969 276.203125 647.660156 276.011719 648.320312 275.640625 C 648.960938 275.238281 649.460938 274.652344 649.761719 273.960938 C 650.128906 273.171875 650.304688 272.308594 650.28125 271.441406 C 650.300781 270.585938 650.125 269.734375 649.761719 268.960938 C 649.460938 268.265625 648.960938 267.679688 648.320312 267.28125 C 647.671875 266.878906 646.921875 266.671875 646.160156 266.679688 L 635.679688 266.679688 L 635.679688 262.679688 L 645.960938 262.679688 C 647.585938 262.644531 649.195312 263.015625 650.640625 263.761719 C 651.941406 264.5 653.019531 265.578125 653.761719 266.878906 C 654.511719 268.308594 654.898438 269.902344 654.878906 271.519531 C 654.902344 273.136719 654.519531 274.730469 653.761719 276.160156 C 653.039062 277.488281 651.9375 278.574219 650.601562 279.28125 C 649.167969 280.027344 647.574219 280.398438 645.960938 280.359375 L 635.679688 280.359375 Z M 644.039062 279.359375 L 648.320312 278.398438 L 656.320312 293.238281 L 651.199219 293.238281 Z M 644.039062 279.359375 "/>
<path style=" stroke:none;fill-rule:nonzero;fill:rgb(13.725491%,12.156863%,12.54902%);fill-opacity:1;" d="M 666.238281 293.238281 L 661.960938 293.238281 L 661.960938 262.640625 L 666.238281 262.640625 Z M 666.238281 293.238281 "/>
<path style=" stroke:none;fill-rule:nonzero;fill:rgb(13.725491%,12.156863%,12.54902%);fill-opacity:1;" d="M 671.519531 262.640625 L 676.199219 262.640625 L 683.519531 286.640625 L 690.878906 262.640625 L 695.558594 262.640625 L 685.558594 293.238281 L 681.558594 293.238281 Z M 671.519531 262.640625 "/>
<path style=" stroke:none;fill-rule:nonzero;fill:rgb(13.725491%,12.156863%,12.54902%);fill-opacity:1;" d="M 706.441406 262.640625 L 710.121094 262.640625 L 721.398438 293.238281 L 716.761719 293.238281 L 708.28125 268.558594 L 700 293.238281 L 695.359375 293.238281 Z M 700.359375 282.640625 L 716.359375 282.640625 L 716.359375 286.640625 L 700.359375 286.640625 Z M 700.359375 282.640625 "/>
<path style=" stroke:none;fill-rule:nonzero;fill:rgb(13.725491%,12.156863%,12.54902%);fill-opacity:1;" d="M 728.761719 292 C 727.15625 291.058594 725.859375 289.667969 725.039062 288 C 724.128906 286.132812 723.675781 284.078125 723.71875 282 L 723.71875 273.601562 C 723.675781 271.523438 724.128906 269.464844 725.039062 267.601562 C 725.867188 265.933594 727.160156 264.546875 728.761719 263.601562 C 730.472656 262.652344 732.402344 262.167969 734.359375 262.199219 C 737.75 262.148438 740.949219 263.761719 742.921875 266.519531 C 743.925781 267.941406 744.605469 269.566406 744.921875 271.28125 L 740.519531 271.28125 C 740.25 270.347656 739.800781 269.480469 739.199219 268.71875 C 738.601562 267.992188 737.851562 267.40625 737 267 C 735.566406 266.292969 733.90625 266.195312 732.398438 266.730469 C 730.894531 267.265625 729.667969 268.386719 729 269.839844 C 728.433594 271.09375 728.175781 272.464844 728.238281 273.839844 L 728.238281 282.238281 C 728.210938 283.546875 728.46875 284.84375 729 286.039062 C 729.488281 287.066406 730.25 287.9375 731.199219 288.558594 C 733.007812 289.609375 735.210938 289.730469 737.121094 288.878906 C 737.976562 288.503906 738.730469 287.925781 739.320312 287.199219 C 739.941406 286.421875 740.390625 285.523438 740.640625 284.558594 L 745.039062 284.558594 C 744.726562 286.273438 744.042969 287.898438 743.039062 289.320312 C 742.078125 290.671875 740.800781 291.773438 739.320312 292.519531 C 737.820312 293.277344 736.160156 293.664062 734.480469 293.640625 C 732.457031 293.640625 730.476562 293.070312 728.761719 292 Z M 728.761719 292 "/>
<path style=" stroke:none;fill-rule:nonzero;fill:rgb(13.725491%,12.156863%,12.54902%);fill-opacity:1;" d="M 760.238281 280.800781 L 760.238281 293.238281 L 756 293.238281 L 756 280.800781 L 746.640625 262.640625 L 751.441406 262.640625 L 758.121094 276.441406 L 764.839844 262.640625 L 769.601562 262.640625 Z M 760.238281 280.800781 "/>
<path style=" stroke:none;fill-rule:nonzero;fill:rgb(13.725491%,12.156863%,12.54902%);fill-opacity:1;" d="M 209.519531 240.359375 L 209.519531 146.679688 L 264.480469 146.679688 L 264.480469 159.199219 L 222 159.199219 L 222 186.640625 L 260.71875 186.640625 L 260.71875 199.160156 L 222 199.160156 L 222 228 L 265.71875 228 L 265.71875 240.480469 Z M 209.519531 240.359375 "/>
<path style=" stroke:none;fill-rule:nonzero;fill:rgb(13.725491%,12.156863%,12.54902%);fill-opacity:1;" d="M 281.960938 240.359375 L 281.960938 228.359375 L 338.679688 159.199219 L 283.199219 159.199219 L 283.199219 146.679688 L 355.640625 146.679688 L 355.640625 158.960938 L 299.480469 228 L 355.480469 228 L 355.480469 240.480469 Z M 281.960938 240.359375 "/>
<path style=" stroke:none;fill-rule:nonzero;fill:rgb(13.725491%,12.156863%,12.54902%);fill-opacity:1;" d="M 370.601562 240.359375 L 370.601562 230.039062 C 369.863281 227.144531 370.234375 224.078125 371.640625 221.441406 C 373.070312 218.214844 374.957031 215.210938 377.238281 212.519531 C 379.84375 209.527344 382.785156 206.84375 386 204.519531 L 404 191.039062 C 406.148438 189.519531 408.109375 187.746094 409.839844 185.761719 C 411.445312 183.851562 412.789062 181.742188 413.839844 179.480469 C 414.839844 177.449219 415.375 175.222656 415.398438 172.960938 C 415.464844 170.140625 414.714844 167.363281 413.238281 164.960938 C 411.789062 162.582031 409.714844 160.644531 407.238281 159.359375 C 404.382812 157.90625 401.207031 157.191406 398 157.28125 C 394.929688 157.214844 391.890625 157.875 389.121094 159.199219 C 386.667969 160.460938 384.5 162.21875 382.761719 164.359375 C 381.136719 166.375 379.914062 168.683594 379.160156 171.160156 L 365.679688 168.640625 C 366.695312 164.429688 368.652344 160.507812 371.398438 157.160156 C 374.375 153.507812 378.117188 150.558594 382.359375 148.519531 C 387.078125 146.273438 392.253906 145.152344 397.480469 145.238281 C 403.230469 145.101562 408.929688 146.324219 414.121094 148.800781 C 423.332031 153.203125 429.105469 162.59375 428.878906 172.800781 C 428.910156 177.882812 427.453125 182.859375 424.679688 187.121094 C 421.421875 191.992188 417.367188 196.28125 412.679688 199.800781 L 396 212.519531 C 392.957031 214.6875 390.257812 217.304688 388 220.28125 C 386.097656 222.882812 384.886719 225.921875 384.480469 229.121094 L 430.359375 229.121094 L 430.359375 240.359375 Z M 370.601562 240.359375 "/>
<path style=" stroke:none;fill-rule:nonzero;fill:rgb(21.568628%,68.627453%,87.450981%);fill-opacity:1;" d="M 448 240.359375 L 448 146.679688 L 461.921875 146.679688 L 493 192.601562 L 524 146.679688 L 537.960938 146.679688 L 537.960938 240.359375 L 524.199219 240.359375 L 524.199219 168 L 492.199219 214.921875 L 460.519531 168 L 460.519531 240.359375 Z M 448 240.359375 "/>
<path style=" stroke:none;fill-rule:nonzero;fill:rgb(21.568628%,68.627453%,87.450981%);fill-opacity:1;" d="M 549.441406 240.359375 L 587.160156 146.679688 L 600.519531 146.679688 L 563.480469 240.359375 Z M 568 215.359375 L 568 204 L 621.601562 204 L 621.601562 215.199219 Z M 624.921875 240.359375 L 588 146.679688 L 601.359375 146.679688 L 639.078125 240.359375 Z M 624.921875 240.359375 "/>
<path style=" stroke:none;fill-rule:nonzero;fill:rgb(21.568628%,68.627453%,87.450981%);fill-opacity:1;" d="M 649.078125 240.359375 L 649.078125 146.679688 L 660.320312 146.679688 L 715.28125 218.398438 L 715.28125 146.679688 L 729 146.679688 L 729 240.359375 L 712.398438 240.359375 L 661.558594 168 L 661.558594 240.398438 Z M 649.078125 240.359375 "/>
<path style=" stroke:none;fill-rule:nonzero;fill:rgb(21.568628%,68.627453%,87.450981%);fill-opacity:1;" d="M 741.359375 240.359375 L 779.078125 146.679688 L 792.441406 146.679688 L 755.398438 240.359375 Z M 758.960938 215.359375 L 758.960938 204 L 812.679688 204 L 812.679688 215.199219 Z M 816.761719 240.359375 L 779.71875 146.679688 L 793.078125 146.679688 L 830.800781 240.359375 Z M 816.761719 240.359375 "/>
<path style=" stroke:none;fill-rule:nonzero;fill:rgb(21.568628%,68.627453%,87.450981%);fill-opacity:1;" d="M 879.160156 242.199219 C 870.363281 242.355469 861.679688 240.21875 853.960938 236 C 846.757812 231.976562 840.792969 226.054688 836.71875 218.878906 C 832.5 211.261719 830.363281 202.667969 830.519531 193.960938 C 830.347656 185.164062 832.484375 176.472656 836.71875 168.761719 C 840.796875 161.597656 846.757812 155.6875 853.960938 151.679688 C 861.667969 147.433594 870.359375 145.28125 879.160156 145.441406 C 884.238281 145.433594 889.277344 146.273438 894.078125 147.921875 C 898.722656 149.503906 903.097656 151.800781 907.039062 154.71875 C 910.738281 157.457031 913.921875 160.828125 916.441406 164.679688 L 905.878906 171.640625 C 904.027344 168.796875 901.683594 166.304688 898.960938 164.28125 C 896.082031 162.148438 892.898438 160.460938 889.519531 159.28125 C 886.195312 158.097656 882.691406 157.488281 879.160156 157.480469 C 872.769531 157.363281 866.464844 158.980469 860.921875 162.160156 C 855.664062 165.214844 851.34375 169.65625 848.441406 175 C 842.414062 186.835938 842.414062 200.84375 848.441406 212.679688 C 851.351562 218.042969 855.703125 222.492188 861 225.519531 C 866.644531 228.703125 873.039062 230.320312 879.519531 230.199219 C 884.742188 230.285156 889.90625 229.089844 894.558594 226.71875 C 898.859375 224.488281 902.460938 221.109375 904.960938 216.960938 C 907.628906 212.578125 909.015625 207.53125 908.960938 202.398438 L 921.640625 201.160156 C 921.75 208.761719 919.800781 216.253906 916 222.839844 C 912.453125 228.898438 907.285156 233.84375 901.078125 237.121094 C 894.3125 240.617188 886.777344 242.363281 879.160156 242.199219 Z M 886.359375 202.878906 L 886.359375 191.640625 L 921.320312 191.640625 L 921.320312 201.519531 L 914.71875 202.878906 Z M 886.359375 202.878906 "/>
<path style=" stroke:none;fill-rule:nonzero;fill:rgb(21.568628%,68.627453%,87.450981%);fill-opacity:1;" d="M 938.800781 240.359375 L 938.800781 146.679688 L 995 146.679688 L 995 159.199219 L 952.519531 159.199219 L 952.519531 186.640625 L 991.238281 186.640625 L 991.238281 199.160156 L 952.519531 199.160156 L 952.519531 228 L 995 228 L 995 240.480469 Z M 938.800781 240.359375 "/>
<path style=" stroke:none;fill-rule:nonzero;fill:rgb(21.568628%,68.627453%,87.450981%);fill-opacity:1;" d="M 91.238281 291.238281 L 89.601562 290.761719 C 62.363281 283.042969 39.222656 264.984375 25.121094 240.441406 C 22.457031 235.890625 20.09375 231.175781 18.039062 226.320312 C 17.546875 225.171875 17.449219 223.890625 17.761719 222.679688 C 18.117188 221.238281 19.019531 219.988281 20.28125 219.199219 C 59.960938 194.078125 99.679688 189.359375 136.28125 190.441406 C 129.480469 188.359375 122.558594 186.441406 115.558594 185.199219 C 81.753906 178.878906 47.0625 178.945312 13.28125 185.398438 L 7.28125 186.441406 L 6.398438 180.359375 C 4.625 163.4375 4.558594 146.378906 6.199219 129.441406 C 6.242188 128.730469 6.433594 128.035156 6.761719 127.398438 C 6.949219 127.050781 7.164062 126.71875 7.398438 126.398438 C 7.96875 125.667969 8.710938 125.089844 9.558594 124.71875 C 61.21875 100.472656 120.929688 100.210938 172.800781 124 L 173.078125 124 C 173.910156 124.363281 174.621094 124.960938 175.121094 125.71875 L 175.121094 125.921875 C 175.640625 126.636719 175.957031 127.480469 176.039062 128.359375 L 176.039062 128.640625 C 177.28125 141.9375 177.550781 155.304688 176.839844 168.640625 L 176.359375 176.640625 L 168.921875 173.601562 C 132.800781 158.921875 80 141.441406 34.160156 156.601562 C 31.28125 157.546875 28.164062 156.070312 27.078125 153.238281 C 26.503906 151.761719 26.5625 150.113281 27.234375 148.679688 C 27.90625 147.242188 29.136719 146.144531 30.640625 145.640625 C 76.761719 130.359375 128.28125 145.359375 165.878906 160 C 165.878906 151.480469 165.878906 142.558594 165.039062 133.359375 C 117.945312 112.6875 64.308594 112.875 17.359375 133.878906 C 16.320312 146.914062 16.320312 160.007812 17.359375 173.039062 C 50.621094 167.316406 84.644531 167.613281 117.800781 173.921875 C 135.710938 177.585938 153.152344 183.246094 169.800781 190.800781 C 172.457031 191.9375 174.140625 194.589844 174.039062 197.480469 C 173.949219 199.367188 173.089844 201.132812 171.660156 202.363281 C 170.230469 203.597656 168.359375 204.1875 166.480469 204 C 125.320312 200 77.71875 198.398438 30.679688 226.320312 C 32.039062 229.199219 33.519531 232 35.039062 234.640625 C 47.304688 256.210938 67.445312 272.195312 91.238281 279.238281 C 116.652344 271.730469 137.957031 254.277344 150.320312 230.839844 C 151.722656 228.164062 154.988281 227.070312 157.71875 228.359375 L 157.960938 228.359375 C 159.332031 229.015625 160.378906 230.195312 160.867188 231.632812 C 161.359375 233.070312 161.246094 234.644531 160.558594 236 C 146.519531 262.824219 122.007812 282.644531 92.839844 290.761719 Z M 91.238281 291.238281 "/>
</g>
</svg>